<svg width="9.581" height="10.535" viewBox="0 0 2.342 10.535" xmlns="http://www.w3.org/2000/svg"><path d="M1.648 5.743c.114-.265.413.023.44.19.073.45-.431.728-.819.69-.693-.07-1.068-.814-.94-1.448.185-.931 1.199-1.414 2.076-1.192 1.17.297 1.764 1.588 1.442 2.706C3.443 8.097 1.871 8.804.512 8.382c-1.646-.51-2.466-2.365-1.943-3.964.615-1.886 2.753-2.818 4.593-2.194 2.125.72 3.17 3.143 2.445 5.223-.825 2.363-3.532 3.523-5.852 2.695-2.603-.93-3.876-3.921-2.946-6.482C-2.158.818 1.119-.57 3.919.464" fill="#fff" fill-rule="evenodd" stroke="#fff" stroke-width=".25" aria-label="Icon"/></svg>
