<svg xmlns="http://www.w3.org/2000/svg" width="225" height="43" viewBox="0 0 55.5 10.5">
  <g aria-label="QuizFlash">
    <path
      d="M23.534 287.571q0 1.375-.822 2.43-.863 1.105-2.191 1.276.191.573.677 1.038.03.031.03.067 0 .14-.35.166h-.466q-.625 0-.718-.02-.263-.063-.294-1.262-1.318-.258-2.124-1.312-.791-1.024-.791-2.383 0-1.514.997-2.625 1.029-1.152 2.527-1.152 1.504 0 2.533 1.152.992 1.111.992 2.625zm-1.235 0q0-1.013-.636-1.757-.667-.78-1.664-.78-.982 0-1.648.796-.626.75-.626 1.757 0 1.002.626 1.757.661.8 1.648.8 1.003 0 1.67-.795.63-.754.63-1.778zM29.15 286.527q0 .378-.03 1.143-.031.76-.031 1.142 0 .377.02 1.131.026.75.026 1.127 0 .103-.098.134-.041.01-1.049.01-.062 0-.077-.387-.01-.388-.057-.388-.026 0-.078.047-.863.75-1.705.75-1.142 0-1.509-.828-.227-.511-.227-1.84 0-1.198.19-2.03.047-.202.171-.202.15 0 .45.005.3.005.45.005.103 0 .103.114 0 .201-.067.672-.073.5-.078.708-.015.31-.015.682 0 .904.129 1.214.222.558.987.558.326 0 .77-.32.47-.336.486-.646.026-.388.026-2.729 0-.253.211-.253h.853q.15 0 .15.181zM31.559 285.034q0 .636-.708.636-.718 0-.718-.636 0-.284.222-.47.207-.176.496-.176.29 0 .496.18.212.182.212.466zm-.036 1.4q0 .398-.052 1.204-.046.801-.046 1.205 0 .377.015 1.131.016.75.016 1.122 0 .108-.093.108h-1.008q-.109 0-.109-.212 0-.356.016-1.07.02-.718.02-1.08 0-.403-.061-1.209-.057-.806-.057-1.209 0-.088.108-.088.093 0 .285.026.196.026.294.026.098 0 .29-.026.196-.026.294-.026.088 0 .088.098zM36.386 290.233q0 .025-.078.367-.083.366-.093.454-.02.181-.093.181-.18 0-.486-.02-.346-.026-.48-.032-.347-.01-.992-.01-.502 0-1.112.041-.764.052-.656.052-.108 0-.14-.093-.072-.248-.072-.579 0-.046.006-.129.005-.088.005-.129 0-.072.108-.17.114-.104 1.106-1.174.501-.522 1.421-1.607h-2.279q-.082 0-.082-.108 0-.15.062-.445.067-.3.067-.444 0-.062.144-.062.29 0 .863.026.574.026.863.026 1.416 0 1.597.02.13.016.13.109 0 .78-.063.878-.051.073-.894 1.018-.542.615-1.638 1.83 1.721-.047 2.667-.047.119 0 .119.047zM41.993 285.024q0 .098-.109.098-.403 0-1.323-.047-.858-.04-1.323-.03l-.377.004q-.362.005-.382.016-.104.041-.104.325v1.246q0 .351.15.351.501 0 1.509-.046 1.013-.047 1.514-.047.109 0 .109.083 0 .088-.016.263-.01.171-.01.259 0 .093.01.284.01.186.01.28 0 .061-.108.061-.357 0-1.085-.02-.724-.021-1.085-.021-.667 0-.755.01-.232.026-.232.191 0 .465.025 1.396.026.93.026 1.395 0 .155-.124.155-.103 0-.31-.02-.201-.027-.31-.027-.088 0-.269.016-.18.015-.268.015-.13 0-.13-.113 0-.574.047-1.726.052-1.153.052-1.726 0-.533-.109-3.463v-.067q-.005-.108.13-.124l.656.016q.81.015 1.503.005.936-.01 2.383-.104.196-.015.222.17-.005.14.02.425.063.397.063.516zM43.967 284.047l-.006.067q-.113 1.923-.113 3.302 0 .615.02 1.845.021 1.225.021 1.835 0 .119-.083.119h-.987q-.093 0-.093-.12 0-.61.01-1.834.011-1.23.011-1.845 0-.558-.057-1.674-.052-1.121-.052-1.674 0-.104.109-.104.093 0 .279.016.186.015.28.015.097 0 .288-.015.192-.016.285-.016.093 0 .088.083zM50.018 286.538q0 .02-.016.093-.201 1.183-.201 2.041 0 .052.129 2.32l.005.073q.005.15-.14.15-.139 0-.428.03-.284.037-.424.037-.098 0-.15-.362-.052-.362-.098-.362-.031 0-.28.202-.304.248-.568.377-.408.207-.816.207-1.003 0-1.69-.801-.65-.765-.65-1.783 0-1.147.655-1.897.688-.78 1.809-.78.79 0 1.38.548.088.103.274.3.015.015.03.015.032 0 .089-.326.056-.325.144-.325.14 0 .522.077.424.093.424.166zm-1.318 2.16q0-.636-.377-1.09-.398-.491-1.018-.491t-1.034.485q-.398.465-.398 1.096 0 .625.398 1.085.414.48 1.034.48.604 0 1.013-.49.382-.46.382-1.075zM53.284 289.623q0 .77-.615 1.235-.558.424-1.36.424-.31 0-.35-.016-.088-.041-.088-.253 0-.114-.031-.341-.026-.227-.026-.336 0-.067.093-.088.067-.015.19 0l.156.016q.977 0 .977-.6 0-.284-.43-.522-.697-.382-.8-.47-.43-.367-.43-.961 0-.775.585-1.21.527-.387 1.333-.387.072 0 .103.067.037.067.13.419.098.351.098.424 0 .056-.098.072-.331.046-.667.088-.398.108-.398.434 0 .232.419.47.62.346.785.501.424.403.424 1.034zM58.54 291.034q0 .19-.11.19-.16 0-.485-.004-.326-.005-.486-.005-.129 0-.129-.17 0-.249.016-.75.02-.501.02-.754 0-.238-.02-.719-.016-.486-.016-.728 0-.93-.878-.93-.285 0-.745.284-.49.305-.49.558v3.07q0 .15-.109.15-.16 0-.48-.006-.321-.005-.481-.005-.119 0-.119-.14v-2.495q0-.61-.067-2.594-.01-.615-.088-1.82-.01-.061-.01-.082 0-.088.062-.109.087-.03.584-.03.108 0 .325-.037.217-.041.315-.041.068 0 .068.098 0 .486-.042 1.462-.036.972-.036 1.458 0 .119.041.124.264-.222.682-.538.507-.315 1.07-.315.972 0 1.339.579.263.424.263 1.343 0 .16-.01.497-.005.33-.005.49 0 .331.01.987.01.657.01.982z"
      style="fill:#fff;stroke-width:.25" transform="translate(-3.211 -282.896)"/>
  </g>
  <g aria-label="Icon">
    <path
      d="M8.486 288.648c.114-.265.413.023.44.19.073.45-.431.728-.819.69-.693-.069-1.068-.814-.94-1.448.185-.931 1.199-1.414 2.076-1.192 1.17.297 1.764 1.588 1.442 2.706-.404 1.408-1.976 2.115-3.335 1.693-1.646-.51-2.466-2.365-1.943-3.964.615-1.886 2.753-2.818 4.593-2.194 2.125.72 3.17 3.143 2.445 5.223-.825 2.363-3.532 3.523-5.852 2.695-2.603-.93-3.876-3.921-2.946-6.482 1.033-2.842 4.31-4.229 7.11-3.196"
      style="fill:#fff;fill-rule:evenodd;stroke:#fff;stroke-width:.25;stroke-opacity:1" transform="translate(-3.211 -282.896)"/>
  </g>
</svg>
